# xmcd
#
# Track frame offsets: 
#        150
#        19850
#        41629
#        63881
#        90033
#        113520
#        145700
#
# Disc length: 2294 seconds
#
# Revision: 7
# Processed by: cddbd v1.5.2PL0 Copyright (c) Steve Scherf et al.
# Submitted via: ExactAudioCopy v0.95b4
#
DISCID=4808f407
DTITLE=The Allman Brothers Band - Brothers And Sisters
DYEAR=1973
DGENRE=Blues
TTITLE0=Wasted Words
TTITLE1=Ramblin' Man
TTITLE2=Come And Go Blues
TTITLE3=Jelly Jelly
TTITLE4=Southbound
TTITLE5=Jessica
TTITLE6=Pony Boy
EXTD=YEAR: 1973
EXTT0=
EXTT1=
EXTT2=
EXTT3=
EXTT4=
EXTT5=
EXTT6=
PLAYORDER=
